<mxfile host="app.diagrams.net" modified="2021-06-16T07:06:33.961Z" agent="5.0 (Windows NT 10.0; WOW64) AppleWebKit/537.36 (KHTML, like Gecko) Chrome/89.0.4389.90 Safari/537.36" etag="jfzaTNR_-yipW58ZE6wU" version="14.7.9" type="github">
  <diagram name="Page-1" id="d9b1e647-80fa-b4a2-5024-87a742678bcc">
    <mxGraphModel dx="2522" dy="804" grid="1" gridSize="10" guides="1" tooltips="1" connect="1" arrows="1" fold="1" page="1" pageScale="1" pageWidth="1100" pageHeight="850" background="none" math="0" shadow="0">
      <root>
        <mxCell id="0" />
        <mxCell id="1" parent="0" />
        <mxCell id="57fe6abec08f04cb-1" value="投前" style="shape=step;whiteSpace=wrap;html=1;fontSize=28;fillColor=#0080FF;fontColor=#FFFFFF;strokeColor=none;" parent="1" vertex="1">
          <mxGeometry x="90" y="180" width="170" height="80" as="geometry" />
        </mxCell>
        <mxCell id="57fe6abec08f04cb-2" value="投中" style="shape=step;whiteSpace=wrap;html=1;fontSize=28;fillColor=#0075E8;fontColor=#FFFFFF;strokeColor=none;" parent="1" vertex="1">
          <mxGeometry x="460" y="180" width="170" height="80" as="geometry" />
        </mxCell>
        <mxCell id="57fe6abec08f04cb-3" value="投后" style="shape=step;whiteSpace=wrap;html=1;fontSize=28;fillColor=#0067CC;fontColor=#FFFFFF;strokeColor=none;" parent="1" vertex="1">
          <mxGeometry x="810" y="180" width="170" height="80" as="geometry" />
        </mxCell>
        <mxCell id="57fe6abec08f04cb-7" value="投研平台规划" style="text;html=1;strokeColor=none;fillColor=#61BAFF;align=center;verticalAlign=middle;whiteSpace=wrap;fontSize=54;fontStyle=1;fontColor=#004D99;" parent="1" vertex="1">
          <mxGeometry x="120" y="110" width="860" height="60" as="geometry" />
        </mxCell>
        <mxCell id="wiMCG6pbvv5NuSlwu-rE-3" value="" style="edgeStyle=orthogonalEdgeStyle;rounded=0;orthogonalLoop=1;jettySize=auto;html=1;" edge="1" parent="1" source="wiMCG6pbvv5NuSlwu-rE-1" target="wiMCG6pbvv5NuSlwu-rE-2">
          <mxGeometry relative="1" as="geometry" />
        </mxCell>
        <mxCell id="wiMCG6pbvv5NuSlwu-rE-1" value="数据中台" style="rounded=1;whiteSpace=wrap;html=1;" vertex="1" parent="1">
          <mxGeometry x="130" y="290" width="120" height="60" as="geometry" />
        </mxCell>
        <mxCell id="wiMCG6pbvv5NuSlwu-rE-5" value="" style="edgeStyle=orthogonalEdgeStyle;rounded=0;orthogonalLoop=1;jettySize=auto;html=1;" edge="1" parent="1" source="wiMCG6pbvv5NuSlwu-rE-2" target="wiMCG6pbvv5NuSlwu-rE-4">
          <mxGeometry relative="1" as="geometry" />
        </mxCell>
        <mxCell id="wiMCG6pbvv5NuSlwu-rE-2" value="页面工具组件" style="whiteSpace=wrap;html=1;rounded=1;" vertex="1" parent="1">
          <mxGeometry x="130" y="430" width="120" height="60" as="geometry" />
        </mxCell>
        <mxCell id="wiMCG6pbvv5NuSlwu-rE-9" value="" style="edgeStyle=orthogonalEdgeStyle;rounded=0;orthogonalLoop=1;jettySize=auto;html=1;" edge="1" parent="1" source="wiMCG6pbvv5NuSlwu-rE-4" target="wiMCG6pbvv5NuSlwu-rE-8">
          <mxGeometry relative="1" as="geometry" />
        </mxCell>
        <mxCell id="wiMCG6pbvv5NuSlwu-rE-4" value="个人研究中心" style="whiteSpace=wrap;html=1;rounded=1;" vertex="1" parent="1">
          <mxGeometry x="130" y="570" width="120" height="60" as="geometry" />
        </mxCell>
        <mxCell id="wiMCG6pbvv5NuSlwu-rE-6" value="" style="shape=curlyBracket;whiteSpace=wrap;html=1;rounded=1;" vertex="1" parent="1">
          <mxGeometry x="90" y="290" width="20" height="340" as="geometry" />
        </mxCell>
        <mxCell id="wiMCG6pbvv5NuSlwu-rE-7" value="一期规划&lt;br&gt;（半年）" style="text;strokeColor=none;fillColor=none;html=1;fontSize=24;fontStyle=1;verticalAlign=middle;align=center;" vertex="1" parent="1">
          <mxGeometry x="-40" y="440" width="100" height="40" as="geometry" />
        </mxCell>
        <mxCell id="wiMCG6pbvv5NuSlwu-rE-11" value="" style="edgeStyle=orthogonalEdgeStyle;rounded=0;orthogonalLoop=1;jettySize=auto;html=1;" edge="1" parent="1" source="wiMCG6pbvv5NuSlwu-rE-8" target="wiMCG6pbvv5NuSlwu-rE-10">
          <mxGeometry relative="1" as="geometry" />
        </mxCell>
        <mxCell id="wiMCG6pbvv5NuSlwu-rE-8" value="知识分享模块" style="whiteSpace=wrap;html=1;rounded=1;" vertex="1" parent="1">
          <mxGeometry x="130" y="710" width="120" height="60" as="geometry" />
        </mxCell>
        <mxCell id="wiMCG6pbvv5NuSlwu-rE-13" value="" style="edgeStyle=orthogonalEdgeStyle;rounded=0;orthogonalLoop=1;jettySize=auto;html=1;" edge="1" parent="1" source="wiMCG6pbvv5NuSlwu-rE-10" target="wiMCG6pbvv5NuSlwu-rE-12">
          <mxGeometry relative="1" as="geometry" />
        </mxCell>
        <mxCell id="wiMCG6pbvv5NuSlwu-rE-10" value="宏、中、微&lt;br&gt;分类" style="whiteSpace=wrap;html=1;rounded=1;" vertex="1" parent="1">
          <mxGeometry x="130" y="850" width="120" height="60" as="geometry" />
        </mxCell>
        <mxCell id="wiMCG6pbvv5NuSlwu-rE-15" value="" style="edgeStyle=orthogonalEdgeStyle;rounded=0;orthogonalLoop=1;jettySize=auto;html=1;" edge="1" parent="1" source="wiMCG6pbvv5NuSlwu-rE-12" target="wiMCG6pbvv5NuSlwu-rE-14">
          <mxGeometry relative="1" as="geometry" />
        </mxCell>
        <mxCell id="wiMCG6pbvv5NuSlwu-rE-12" value="研报管理平台" style="whiteSpace=wrap;html=1;rounded=1;" vertex="1" parent="1">
          <mxGeometry x="130" y="990" width="120" height="60" as="geometry" />
        </mxCell>
        <mxCell id="wiMCG6pbvv5NuSlwu-rE-14" value="Excel插件" style="whiteSpace=wrap;html=1;rounded=1;" vertex="1" parent="1">
          <mxGeometry x="130" y="1130" width="120" height="60" as="geometry" />
        </mxCell>
        <mxCell id="wiMCG6pbvv5NuSlwu-rE-16" value="" style="shape=curlyBracket;whiteSpace=wrap;html=1;rounded=1;" vertex="1" parent="1">
          <mxGeometry x="90" y="690" width="20" height="500" as="geometry" />
        </mxCell>
        <mxCell id="wiMCG6pbvv5NuSlwu-rE-17" value="二期规划&lt;br&gt;（半年）" style="text;strokeColor=none;fillColor=none;html=1;fontSize=24;fontStyle=1;verticalAlign=middle;align=center;" vertex="1" parent="1">
          <mxGeometry x="-40" y="920" width="100" height="40" as="geometry" />
        </mxCell>
        <mxCell id="wiMCG6pbvv5NuSlwu-rE-20" value="" style="edgeStyle=orthogonalEdgeStyle;rounded=0;orthogonalLoop=1;jettySize=auto;html=1;" edge="1" parent="1" source="wiMCG6pbvv5NuSlwu-rE-18" target="wiMCG6pbvv5NuSlwu-rE-19">
          <mxGeometry relative="1" as="geometry" />
        </mxCell>
        <mxCell id="wiMCG6pbvv5NuSlwu-rE-18" value="风控系统" style="rounded=1;whiteSpace=wrap;html=1;" vertex="1" parent="1">
          <mxGeometry x="485" y="290" width="120" height="60" as="geometry" />
        </mxCell>
        <mxCell id="wiMCG6pbvv5NuSlwu-rE-22" value="" style="edgeStyle=orthogonalEdgeStyle;rounded=0;orthogonalLoop=1;jettySize=auto;html=1;" edge="1" parent="1" source="wiMCG6pbvv5NuSlwu-rE-19" target="wiMCG6pbvv5NuSlwu-rE-21">
          <mxGeometry relative="1" as="geometry" />
        </mxCell>
        <mxCell id="wiMCG6pbvv5NuSlwu-rE-19" value="舆情预警" style="whiteSpace=wrap;html=1;rounded=1;" vertex="1" parent="1">
          <mxGeometry x="485" y="430" width="120" height="60" as="geometry" />
        </mxCell>
        <mxCell id="wiMCG6pbvv5NuSlwu-rE-24" value="" style="edgeStyle=orthogonalEdgeStyle;rounded=0;orthogonalLoop=1;jettySize=auto;html=1;" edge="1" parent="1" source="wiMCG6pbvv5NuSlwu-rE-21" target="wiMCG6pbvv5NuSlwu-rE-23">
          <mxGeometry relative="1" as="geometry" />
        </mxCell>
        <mxCell id="wiMCG6pbvv5NuSlwu-rE-21" value="风险统计" style="whiteSpace=wrap;html=1;rounded=1;" vertex="1" parent="1">
          <mxGeometry x="485" y="570" width="120" height="60" as="geometry" />
        </mxCell>
        <mxCell id="wiMCG6pbvv5NuSlwu-rE-23" value="资金投向" style="whiteSpace=wrap;html=1;rounded=1;" vertex="1" parent="1">
          <mxGeometry x="485" y="710" width="120" height="60" as="geometry" />
        </mxCell>
        <mxCell id="wiMCG6pbvv5NuSlwu-rE-27" value="" style="edgeStyle=orthogonalEdgeStyle;rounded=0;orthogonalLoop=1;jettySize=auto;html=1;" edge="1" parent="1" source="wiMCG6pbvv5NuSlwu-rE-25" target="wiMCG6pbvv5NuSlwu-rE-26">
          <mxGeometry relative="1" as="geometry" />
        </mxCell>
        <mxCell id="wiMCG6pbvv5NuSlwu-rE-25" value="模拟交易" style="rounded=1;whiteSpace=wrap;html=1;" vertex="1" parent="1">
          <mxGeometry x="835" y="290" width="120" height="60" as="geometry" />
        </mxCell>
        <mxCell id="wiMCG6pbvv5NuSlwu-rE-29" value="" style="edgeStyle=orthogonalEdgeStyle;rounded=0;orthogonalLoop=1;jettySize=auto;html=1;" edge="1" parent="1" source="wiMCG6pbvv5NuSlwu-rE-26" target="wiMCG6pbvv5NuSlwu-rE-28">
          <mxGeometry relative="1" as="geometry" />
        </mxCell>
        <mxCell id="wiMCG6pbvv5NuSlwu-rE-26" value="策略回测" style="whiteSpace=wrap;html=1;rounded=1;" vertex="1" parent="1">
          <mxGeometry x="835" y="430" width="120" height="60" as="geometry" />
        </mxCell>
        <mxCell id="wiMCG6pbvv5NuSlwu-rE-33" value="" style="edgeStyle=orthogonalEdgeStyle;rounded=0;orthogonalLoop=1;jettySize=auto;html=1;" edge="1" parent="1" source="wiMCG6pbvv5NuSlwu-rE-28" target="wiMCG6pbvv5NuSlwu-rE-32">
          <mxGeometry relative="1" as="geometry" />
        </mxCell>
        <mxCell id="wiMCG6pbvv5NuSlwu-rE-28" value="投资组合" style="whiteSpace=wrap;html=1;rounded=1;" vertex="1" parent="1">
          <mxGeometry x="835" y="570" width="120" height="60" as="geometry" />
        </mxCell>
        <mxCell id="wiMCG6pbvv5NuSlwu-rE-30" value="" style="shape=curlyBracket;whiteSpace=wrap;html=1;rounded=1;" vertex="1" parent="1">
          <mxGeometry x="440" y="290" width="20" height="480" as="geometry" />
        </mxCell>
        <mxCell id="wiMCG6pbvv5NuSlwu-rE-31" value="三期规划&lt;br&gt;半年" style="text;strokeColor=none;fillColor=none;html=1;fontSize=24;fontStyle=1;verticalAlign=middle;align=center;" vertex="1" parent="1">
          <mxGeometry x="320" y="510" width="100" height="40" as="geometry" />
        </mxCell>
        <mxCell id="wiMCG6pbvv5NuSlwu-rE-35" value="" style="edgeStyle=orthogonalEdgeStyle;rounded=0;orthogonalLoop=1;jettySize=auto;html=1;" edge="1" parent="1" source="wiMCG6pbvv5NuSlwu-rE-32" target="wiMCG6pbvv5NuSlwu-rE-34">
          <mxGeometry relative="1" as="geometry" />
        </mxCell>
        <mxCell id="wiMCG6pbvv5NuSlwu-rE-32" value="因子集市" style="whiteSpace=wrap;html=1;rounded=1;" vertex="1" parent="1">
          <mxGeometry x="835" y="710" width="120" height="60" as="geometry" />
        </mxCell>
        <mxCell id="wiMCG6pbvv5NuSlwu-rE-37" value="" style="edgeStyle=orthogonalEdgeStyle;rounded=0;orthogonalLoop=1;jettySize=auto;html=1;" edge="1" parent="1" source="wiMCG6pbvv5NuSlwu-rE-34" target="wiMCG6pbvv5NuSlwu-rE-36">
          <mxGeometry relative="1" as="geometry" />
        </mxCell>
        <mxCell id="wiMCG6pbvv5NuSlwu-rE-34" value="因子分析" style="whiteSpace=wrap;html=1;rounded=1;" vertex="1" parent="1">
          <mxGeometry x="835" y="850" width="120" height="60" as="geometry" />
        </mxCell>
        <mxCell id="wiMCG6pbvv5NuSlwu-rE-36" value="绩效归因" style="whiteSpace=wrap;html=1;rounded=1;" vertex="1" parent="1">
          <mxGeometry x="835" y="990" width="120" height="60" as="geometry" />
        </mxCell>
        <mxCell id="wiMCG6pbvv5NuSlwu-rE-38" value="四期规划&lt;br&gt;半年" style="text;strokeColor=none;fillColor=none;html=1;fontSize=24;fontStyle=1;verticalAlign=middle;align=center;" vertex="1" parent="1">
          <mxGeometry x="680" y="650" width="100" height="40" as="geometry" />
        </mxCell>
        <mxCell id="wiMCG6pbvv5NuSlwu-rE-39" value="" style="shape=curlyBracket;whiteSpace=wrap;html=1;rounded=1;" vertex="1" parent="1">
          <mxGeometry x="790" y="290" width="20" height="760" as="geometry" />
        </mxCell>
      </root>
    </mxGraphModel>
  </diagram>
</mxfile>
